<?xml version="1.0" encoding="UTF-8"?>
<svg id="Layer_1" xmlns="http://www.w3.org/2000/svg" width="11.99mm" height="11.99mm" version="1.1" xmlns:xlink="http://www.w3.org/1999/xlink" viewBox="0 0 33.99 33.99">
  <!-- Generator: Adobe Illustrator 30.2.1, SVG Export Plug-In . SVG Version: 2.1.1 Build 1)  -->
  <defs>
    <linearGradient id="linear-gradient" x1="35.94" y1="23.03" x2="46.21" y2="12.76" gradientTransform="translate(-.1 33.73) scale(1 -1)" gradientUnits="userSpaceOnUse">
      <stop offset="0" stop-color="#4161ad"/>
      <stop offset="1" stop-color="#d84599"/>
    </linearGradient>
    <linearGradient id="linear-gradient1" x1="16.02" y1="1.22" x2="41.03" y2="29.51" gradientTransform="translate(-.1 33.73) scale(1 -1)" gradientUnits="userSpaceOnUse">
      <stop offset="0" stop-color="#4161ad"/>
      <stop offset="1" stop-color="#d84599"/>
    </linearGradient>
    <linearGradient id="linear-gradient2" x1="6.81" y1="30.09" x2="6.81" y2="7.68" gradientTransform="translate(-.1 33.73) scale(1 -1)" gradientUnits="userSpaceOnUse">
      <stop offset="0" stop-color="#009eff"/>
      <stop offset="1" stop-color="#4161ad"/>
    </linearGradient>
    <linearGradient id="linear-gradient3" x1="45.33" y1="8.17" x2="25.05" y2="8.17" gradientTransform="translate(-.1 33.73) scale(1 -1)" gradientUnits="userSpaceOnUse">
      <stop offset=".06" stop-color="#fff" stop-opacity=".8"/>
      <stop offset=".2" stop-color="#fff"/>
      <stop offset=".34" stop-color="#fff" stop-opacity=".8"/>
      <stop offset=".73" stop-color="#fff" stop-opacity="0"/>
    </linearGradient>
    <linearGradient id="linear-gradient4" x1="45.57" y1="23.71" x2="26.95" y2="23.71" gradientTransform="translate(-.1 33.73) scale(1 -1)" gradientUnits="userSpaceOnUse">
      <stop offset=".06" stop-color="#fff" stop-opacity=".8"/>
      <stop offset=".2" stop-color="#fff"/>
      <stop offset=".34" stop-color="#fff" stop-opacity=".8"/>
      <stop offset=".73" stop-color="#fff" stop-opacity="0"/>
    </linearGradient>
  </defs>
  <path d="M37.7,24.03s5.51-2.67,5.65-8.5c.14-5.83-3.63-8.72-3.63-8.72,0,0,5.86.08,7.57,3.87,1.21,2.68.58,5.78.58,5.78l-1.43,4.15-3.39,3.31-5.13.85-.21-.72h-.01Z" fill="url(#linear-gradient)"/>
  <path d="M9.55,26.05v3.32s2.6,1.24,5.65.92,6.92-1.96,10.72-6.92c3.8-4.96,7.05-9.82,10.43-12.7s8.19-3.5,10.95,0c0,0-1.02-3.67-5.14-5.51s-8.46-.45-10.95,2.57-7.18,10.19-9.73,13.21c-2.56,3.02-6.99,7.01-11.92,5.1h0Z" fill="url(#linear-gradient1)"/>
  <path d="M10,12.5v-5.41s1.84-.28,3.33-.28,3.79.03,7.2,3.67c3.42,3.66,3.63,4.59,6.27,7.56,2.64,2.97,5.59,6,10.61,6s9.17-2.33,10.44-7.59c0,0-1.27,7.5-6.41,11.29-5.14,3.79-10.16,1.3-12.18,0s-4.11-3.29-5.99-5.54-5.17-7.08-7.42-8.69-3.87-1.74-5.86-1h0Z" fill="#009eff"/>
  <path d="M6.57,3.64h3.43v3.43h-3.43s0-3.43,0-3.43ZM.9,7.92h2.18v-2.18H.9v2.18ZM0,17.19h1.79v-1.79H0v1.79ZM.9,12.4h2.18v-2.18H.9v2.18ZM1.27,24.2h2.74v-2.74H1.27v2.74ZM4.94,11.31h2.3v-2.3h-2.3v2.3ZM5.75,17.67h4.08v-4.08h-4.08s0,4.08,0,4.08ZM3.72,19.72h2.03v-2.03h-2.03v2.03ZM10.64,21.74h2.77v-2.77h-2.77s0,2.77,0,2.77ZM6.57,26.05h2.97v-2.97h-2.97v2.97Z" fill="url(#linear-gradient2)"/>
  <path d="M45.21,22.12s-1.99,2.97-7.15,4.04c-5.16,1.07-13.12-4.04-13.12-4.04,0,0,4.49,7.01,10.86,6.87s9.39-6.87,9.39-6.87h.01Z" fill="url(#linear-gradient3)" isolation="isolate" opacity=".76"/>
  <path d="M45.45,8.4s-2.16-3.52-7.42-3.43c-5.24.08-8.48,6.17-10.55,8.7-2.08,2.53,1.53.89,1.53.89,0,0,3.66-5.51,8.89-7.35,4.38-1.55,7.56,1.19,7.56,1.19Z" fill="url(#linear-gradient4)"/>
</svg>