<?xml version="1.0" encoding="UTF-8"?>
<svg id="Layer_1" xmlns="http://www.w3.org/2000/svg" width="55.03mm" height="14.82mm" version="1.1" xmlns:xlink="http://www.w3.org/1999/xlink" viewBox="0 0 156 42">
  <!-- Generator: Adobe Illustrator 30.2.1, SVG Export Plug-In . SVG Version: 2.1.1 Build 1)  -->
  <defs>
    <linearGradient id="linear-gradient" x1="29.12" y1="15.89" x2="37.46" y2="24.23" gradientUnits="userSpaceOnUse">
      <stop offset="0" stop-color="#0b54fe"/>
      <stop offset="1" stop-color="#fc0fc0"/>
    </linearGradient>
    <linearGradient id="linear-gradient1" x1="12.93" y1="33.61" x2="33.26" y2="10.62" xlink:href="#linear-gradient"/>
    <linearGradient id="linear-gradient2" x1="5.45" y1="10.15" x2="5.45" y2="28.36" gradientUnits="userSpaceOnUse">
      <stop offset="0" stop-color="#009eff"/>
      <stop offset="1" stop-color="#0b54fe"/>
    </linearGradient>
    <linearGradient id="linear-gradient3" x1="36.75" y1="27.96" x2="20.28" y2="27.96" gradientUnits="userSpaceOnUse">
      <stop offset=".06" stop-color="#fff" stop-opacity=".8"/>
      <stop offset=".2" stop-color="#fff"/>
      <stop offset=".34" stop-color="#fff" stop-opacity=".8"/>
      <stop offset=".73" stop-color="#fff" stop-opacity="0"/>
    </linearGradient>
    <linearGradient id="linear-gradient4" x1="36.94" y1="15.34" x2="21.81" y2="15.34" xlink:href="#linear-gradient3"/>
  </defs>
  <g>
    <path d="M50.22,12.93c.91,0,1.71.13,2.4.4.69.27,1.27.63,1.75,1.08s.84.99,1.08,1.59c.24.61.36,1.25.36,1.93s-.11,1.33-.34,1.93c-.23.61-.57,1.14-1.03,1.59-.46.45-1.04.81-1.74,1.07-.7.26-1.52.39-2.48.39h-5.07v6.39h-1.66V12.93h6.73ZM45.15,14.27v7.3h4.94c1.29,0,2.29-.34,3-1.01.71-.67,1.07-1.55,1.07-2.64,0-.53-.09-1.02-.27-1.46-.18-.45-.45-.83-.81-1.16-.36-.32-.78-.58-1.28-.76-.5-.18-1.07-.27-1.71-.27h-4.94Z" fill="#fff"/>
    <path d="M58.12,14.93c0-.35.12-.64.35-.88.23-.23.53-.35.88-.35s.64.12.88.35c.23.24.35.53.35.88s-.12.64-.35.88c-.24.24-.53.35-.88.35s-.64-.12-.88-.35c-.24-.23-.35-.53-.35-.88ZM58.59,17.93h1.59v11.37h-1.59v-11.37Z" fill="#fff"/>
    <path d="M71.51,25.7c-.71-.66-1.71-1.23-3-1.72-1.29.49-2.29,1.06-3,1.72-.71.66-1.07,1.47-1.07,2.44v1.16h-1.59v-1.16c0-.62.08-1.16.25-1.63.17-.46.41-.88.72-1.24.31-.36.69-.69,1.14-.97.45-.28.95-.56,1.51-.83-.58-.18-1.09-.39-1.55-.63-.45-.23-.83-.53-1.14-.88-.3-.35-.53-.76-.69-1.23-.16-.47-.24-1.02-.24-1.66v-1.16h1.59v1.16c0,.49.11.95.32,1.39.21.44.5.83.88,1.16.37.33.8.6,1.3.8.49.2,1.02.3,1.58.3s1.09-.1,1.58-.3c.49-.2.92-.46,1.3-.8.37-.33.66-.72.88-1.16.21-.44.32-.9.32-1.39v-1.16h1.59v1.16c0,.64-.09,1.19-.26,1.65-.17.46-.42.86-.75,1.21-.33.34-.72.63-1.17.86-.45.24-.96.45-1.52.65.58.27,1.09.55,1.55.83.45.28.84.6,1.16.96.32.36.56.77.74,1.24.17.47.26,1.02.26,1.66v1.16h-1.59v-1.16c0-.97-.36-1.79-1.07-2.44Z" fill="#fff"/>
    <path d="M78.2,25c.14.5.36.95.66,1.34.3.39.67.73,1.09,1,.42.27.9.48,1.42.61s1.07.2,1.65.2c.83,0,1.73-.17,2.69-.51.96-.34,1.97-.92,3.01-1.74v1.66c-.79.7-1.66,1.24-2.62,1.61s-2.02.57-3.21.57c-.91,0-1.76-.15-2.55-.44-.79-.3-1.47-.71-2.05-1.25-.58-.54-1.03-1.18-1.36-1.93-.33-.75-.5-1.59-.5-2.51s.16-1.74.49-2.49c.33-.75.78-1.39,1.35-1.93.58-.54,1.26-.96,2.05-1.26.79-.3,1.64-.45,2.57-.45s1.76.13,2.5.38c.74.25,1.37.6,1.88,1.06.51.45.9.99,1.18,1.61.28.62.42,1.3.42,2.05l-10.69,2.43ZM83.02,19.07c-.68,0-1.33.11-1.93.32-.61.21-1.14.52-1.59.91-.45.39-.81.87-1.07,1.42-.26.55-.39,1.18-.39,1.88l9.03-2.02c-.05-.33-.16-.65-.35-.96-.19-.3-.45-.57-.78-.8-.33-.23-.74-.41-1.23-.55-.49-.14-1.05-.2-1.68-.2Z" fill="#fff"/>
    <path d="M91.16,12.24h1.59v17.06h-1.59V12.24Z" fill="#fff"/>
    <path d="M94.6,12.74h2.5l3.23,12.74,4.18-12.74h1.96l4.12,12.58c.52-2.09,1.04-4.21,1.58-6.35.54-2.14,1.06-4.21,1.56-6.23h2.48l-4.39,16.56h-2.23l-4.05-12.58-4.14,12.58h-2.18l-4.62-16.56Z" fill="#fff"/>
    <path d="M127.82,27.23c-.82.76-1.75,1.37-2.79,1.83s-2.18.69-3.4.69c-.83,0-1.61-.09-2.34-.26-.73-.17-1.36-.44-1.91-.78-.55-.35-.97-.78-1.28-1.31s-.47-1.14-.47-1.85.15-1.36.44-1.9c.3-.54.7-.98,1.21-1.32.51-.34,1.1-.6,1.76-.77.67-.17,1.36-.26,2.09-.26.83-.01,1.63.06,2.38.22s1.44.39,2.06.69v-.32c0-.8-.28-1.42-.85-1.86-.57-.44-1.38-.66-2.44-.66-.99,0-1.96.13-2.91.4-.96.27-1.93.73-2.93,1.4v-2.39c.76-.47,1.62-.86,2.58-1.16.96-.3,2.05-.45,3.26-.45.83,0,1.59.11,2.27.33.68.22,1.27.55,1.76.99.49.44.87.99,1.13,1.64.26.65.4,1.4.4,2.25v4.87ZM117.88,25.55c0,.36.1.67.31.92s.48.45.82.61c.34.16.74.28,1.19.35.45.08.93.11,1.43.11.76,0,1.47-.09,2.13-.28.66-.19,1.26-.44,1.81-.76v-2.14c-.76-.35-1.49-.6-2.21-.76-.71-.16-1.39-.24-2.02-.24-1-.01-1.83.17-2.48.55-.65.38-.98.92-.98,1.64Z" fill="#fff"/>
    <path d="M134.59,29.28c-1.59-.67-2.84-1.82-3.77-3.45-.92-1.63-1.38-3.67-1.38-6.11v-2.12h2.25v2.12c0,.88.08,1.72.25,2.54.17.81.41,1.55.73,2.23.32.67.71,1.26,1.16,1.75.45.49.98.86,1.57,1.1.59-.24,1.11-.61,1.57-1.1.45-.49.84-1.08,1.16-1.75.32-.67.56-1.42.73-2.23.17-.81.25-1.66.25-2.54v-2.12h2.25v2.12c0,2.44-.47,4.48-1.41,6.11-.94,1.63-2.22,2.79-3.84,3.47h-1.38l-.14-.02Z" fill="#fff"/>
    <path d="M145.49,25.05c.29.82.83,1.44,1.64,1.86.8.42,1.71.64,2.71.64.8,0,1.7-.19,2.69-.56.99-.37,2.1-1.03,3.33-1.97v2.41c-.86.74-1.8,1.32-2.81,1.72-1.01.4-2.12.6-3.33.6-.96,0-1.85-.15-2.67-.45-.83-.3-1.54-.73-2.14-1.28-.6-.55-1.07-1.22-1.42-1.99-.35-.77-.52-1.63-.52-2.57s.17-1.77.51-2.55.81-1.44,1.41-1.99c.6-.55,1.31-.99,2.14-1.3.83-.31,1.72-.47,2.69-.47s1.86.14,2.64.41c.77.27,1.43.66,1.97,1.15.54.49.95,1.08,1.24,1.75.29.67.43,1.41.43,2.22l-10.51,2.37ZM149.84,19.36c-.59,0-1.15.08-1.68.25-.53.17-1,.41-1.41.73-.41.32-.74.71-1,1.16-.26.45-.42.96-.48,1.52l8.16-1.8c-.17-.5-.55-.94-1.14-1.31-.59-.37-1.41-.56-2.46-.56Z" fill="#fff"/>
  </g>
  <g>
    <path d="M30.65,26.72s4.48-2.17,4.59-6.92-2.95-7.08-2.95-7.08c0,0,4.76.06,6.15,3.15.98,2.18.47,4.69.47,4.69l-1.15,3.38-2.76,2.69-4.17.69-.18-.59Z" fill="url(#linear-gradient)"/>
    <path d="M7.76,28.36v2.7s2.11,1.01,4.59.75,5.63-1.59,8.72-5.63,5.73-7.98,8.47-10.32c2.74-2.34,6.66-2.85,8.9,0,0,0-.83-2.99-4.18-4.48-3.36-1.49-6.87-.37-8.9,2.09s-5.84,8.28-7.91,10.74-5.69,5.7-9.69,4.15Z" fill="url(#linear-gradient1)"/>
    <path d="M8.13,17.35v-4.4s1.49-.23,2.71-.23,3.08.02,5.85,2.99c2.78,2.97,2.95,3.73,5.1,6.14,2.16,2.41,4.55,4.88,8.63,4.88s7.45-1.9,8.49-6.16c0,0-1.03,6.1-5.22,9.18-4.18,3.08-8.26,1.05-9.9,0s-3.34-2.67-4.87-4.5-4.2-5.75-6.03-7.07-3.15-1.41-4.76-.82Z" fill="#009eff"/>
    <path d="M5.34,10.15h2.79v2.79h-2.79v-2.79ZM.74,13.63h1.77v-1.77H.74v1.77ZM0,21.17h1.45v-1.45H0v1.45ZM.74,17.26h1.77v-1.77H.74v1.77ZM1.03,26.86h2.23v-2.23H1.03v2.23ZM4.02,16.38h1.87v-1.87h-1.87v1.87ZM4.68,21.55h3.32v-3.32h-3.32v3.32ZM3.02,23.21h1.66v-1.66h-1.66v1.66ZM8.64,24.86h2.26v-2.26h-2.26v2.26ZM5.34,28.36h2.41v-2.41h-2.41v2.41Z" fill="url(#linear-gradient2)"/>
    <path d="M36.75,25.17s-1.62,2.41-5.81,3.28c-4.2.87-10.67-3.28-10.67-3.28,0,0,3.66,5.7,8.84,5.58s7.64-5.58,7.64-5.58Z" fill="url(#linear-gradient3)" opacity=".76"/>
    <path d="M36.94,14.02s-1.76-2.86-6.02-2.79-6.89,5.02-8.58,7.08,1.24.73,1.24.73c0,0,2.98-4.48,7.22-5.98,3.56-1.27,6.14.96,6.14.96Z" fill="url(#linear-gradient4)"/>
  </g>
</svg>